PathFileType	4	(X/Y/Z)	 static.trc
DataRate	CameraRate	NumFrames	NumMarkers	Units	OrigDataRate	OrigDataStartFrame	OrigNumFrames
200	200	9	43	m	200	1	400
Frame#	Time	C7			LSH			RSH			MAN			RASI			LASI			HIPR			HIPL			RPSI			LPSI			COX			RTHI1			RTHI2			RTHI3			RTHI4			RLKN			RMKN			RSHA1			RSHA2			RSHA3			RSHA4			RLMAL			RMMAL			RHEEL			RMET5			RMET1			RTOE			LTHI1			LTHI2			LTHI3			LTHI4			LLKN			LMKN			LSHA1			LSHA2			LSHA3			LSHA4			LLMAL			LMMAL			LHEEL			LMET5			LMET1			LTOE			
		X1	Y1	Z1	X2	Y2	Z2	X3	Y3	Z3	X4	Y4	Z4	X5	Y5	Z5	X6	Y6	Z6	X7	Y7	Z7	X8	Y8	Z8	X9	Y9	Z9	X10	Y10	Z10	X11	Y11	Z11	X12	Y12	Z12	X13	Y13	Z13	X14	Y14	Z14	X15	Y15	Z15	X16	Y16	Z16	X17	Y17	Z17	X18	Y18	Z18	X19	Y19	Z19	X20	Y20	Z20	X21	Y21	Z21	X22	Y22	Z22	X23	Y23	Z23	X24	Y24	Z24	X25	Y25	Z25	X26	Y26	Z26	X27	Y27	Z27	X28	Y28	Z28	X29	Y29	Z29	X30	Y30	Z30	X31	Y31	Z31	X32	Y32	Z32	X33	Y33	Z33	X34	Y34	Z34	X35	Y35	Z35	X36	Y36	Z36	X37	Y37	Z37	X38	Y38	Z38	X39	Y39	Z39	X40	Y40	Z40	X41	Y41	Z41	X42	Y42	Z42	X43	Y43	Z43	
1	0.0050	-0.381538	1.522578	-0.548740	-0.326553	1.479252	-0.771395	-0.299673	1.490836	-0.348606	-0.238807	1.474693	-0.557324	-0.197540	1.017647	-0.429346	-0.204735	1.015262	-0.668730	-0.292318	1.071019	-0.377907	-0.306862	1.076388	-0.714054	-0.384442	1.037043	-0.497559	-0.382954	1.038453	-0.590691	-0.386618	1.038163	-0.544033	-0.291019	0.810267	-0.339746	-0.287345	0.750253	-0.333235	-0.222796	0.750328	-0.336608	-0.217954	0.811346	-0.344104	-0.292272	0.489351	-0.349266	-0.295588	0.470359	-0.463691	-0.345408	0.315614	-0.312686	-0.353646	0.274811	-0.320998	-0.296674	0.270923	-0.341689	-0.293520	0.310478	-0.335197	-0.352230	0.083879	-0.335981	-0.324326	0.086623	-0.425732	-0.398488	0.047872	-0.377220	-0.221476	0.027750	-0.313491	-0.188137	0.046313	-0.396915	-0.155480	0.033700	-0.402934	-0.310018	0.767459	-0.745154	-0.308427	0.705904	-0.743497	-0.243655	0.701234	-0.743113	-0.237782	0.760907	-0.745278	-0.312817	0.483309	-0.722981	-0.298707	0.472287	-0.615064	-0.367694	0.294232	-0.748742	-0.371530	0.253869	-0.741729	-0.310738	0.254497	-0.733863	-0.314188	0.297887	-0.741929	-0.343781	0.073733	-0.739403	-0.325335	0.077592	-0.647648	-0.399367	0.038357	-0.699079	-0.223686	0.028099	-0.767025	-0.184791	0.041465	-0.684526	-0.154729	0.029545	-0.685633	
2	0.0100	-0.381492	1.522558	-0.548753	-0.326582	1.479226	-0.771423	-0.299697	1.490840	-0.348700	-0.238808	1.474661	-0.557371	-0.197563	1.017649	-0.429339	-0.204745	1.015258	-0.668732	-0.292305	1.071067	-0.377946	-0.306875	1.076356	-0.714069	-0.384427	1.037047	-0.497591	-0.383010	1.038444	-0.590910	-0.386622	1.038163	-0.544040	-0.291045	0.810281	-0.339747	-0.287368	0.750272	-0.333188	-0.222808	0.750342	-0.336596	-0.217973	0.811351	-0.344107	-0.292299	0.489362	-0.349264	-0.295606	0.470358	-0.463687	-0.345438	0.315599	-0.312739	-0.353648	0.274815	-0.320988	-0.296690	0.270925	-0.341693	-0.293484	0.310452	-0.335167	-0.352242	0.083885	-0.335928	-0.324321	0.086576	-0.425764	-0.398480	0.047879	-0.377235	-0.221482	0.027756	-0.313493	-0.188137	0.046300	-0.396909	-0.155472	0.033710	-0.402949	-0.310030	0.767453	-0.745173	-0.308457	0.705901	-0.743480	-0.243673	0.701236	-0.743104	-0.237793	0.760916	-0.745288	-0.312825	0.483307	-0.722982	-0.298731	0.472281	-0.615063	-0.367741	0.294199	-0.748732	-0.371535	0.253893	-0.741723	-0.310748	0.254502	-0.733861	-0.314173	0.297833	-0.741978	-0.343768	0.073682	-0.739441	-0.325352	0.077558	-0.647597	-0.399368	0.038364	-0.699077	-0.223683	0.028106	-0.767036	-0.184778	0.041431	-0.684556	-0.154726	0.029554	-0.685642	
3	0.0150	-0.381414	1.522512	-0.548764	-0.326594	1.479185	-0.771436	-0.299707	1.490837	-0.348758	-0.238812	1.474621	-0.557416	-0.197585	1.017652	-0.429334	-0.204759	1.015254	-0.668734	-0.292292	1.071121	-0.377985	-0.306885	1.076320	-0.714083	-0.384431	1.037051	-0.497596	-0.383033	1.038446	-0.590979	-0.386624	1.038163	-0.544052	-0.291069	0.810302	-0.339748	-0.287390	0.750296	-0.333132	-0.222818	0.750359	-0.336583	-0.217992	0.811357	-0.344111	-0.292328	0.489373	-0.349262	-0.295624	0.470358	-0.463686	-0.345470	0.315586	-0.312800	-0.353650	0.274821	-0.320981	-0.296704	0.270929	-0.341698	-0.293450	0.310426	-0.335136	-0.352252	0.083887	-0.335863	-0.324311	0.086520	-0.425806	-0.398462	0.047893	-0.377253	-0.221481	0.027765	-0.313497	-0.188135	0.046290	-0.396906	-0.155466	0.033722	-0.402966	-0.310045	0.767443	-0.745193	-0.308502	0.705882	-0.743447	-0.243687	0.701239	-0.743095	-0.237803	0.760923	-0.745300	-0.312835	0.483311	-0.722984	-0.298756	0.472274	-0.615059	-0.367796	0.294160	-0.748721	-0.371542	0.253908	-0.741717	-0.310757	0.254508	-0.733857	-0.314152	0.297771	-0.742042	-0.343740	0.073630	-0.739500	-0.325373	0.077518	-0.647540	-0.399367	0.038378	-0.699082	-0.223676	0.028120	-0.767051	-0.184755	0.041395	-0.684587	-0.154720	0.029570	-0.685658	
4	0.0200	-0.381348	1.522470	-0.548770	-0.326606	1.479146	-0.771448	-0.299716	1.490837	-0.348813	-0.238815	1.474582	-0.557460	-0.197606	1.017656	-0.429329	-0.204772	1.015250	-0.668736	-0.292281	1.071170	-0.378019	-0.306896	1.076287	-0.714095	-0.384436	1.037054	-0.497601	-0.383054	1.038448	-0.591044	-0.386627	1.038163	-0.544063	-0.291093	0.810321	-0.339748	-0.287412	0.750318	-0.333084	-0.222827	0.750376	-0.336571	-0.218009	0.811364	-0.344114	-0.292355	0.489383	-0.349260	-0.295641	0.470357	-0.463685	-0.345500	0.315575	-0.312854	-0.353654	0.274826	-0.320976	-0.296717	0.270934	-0.341703	-0.293419	0.310401	-0.335108	-0.352259	0.083887	-0.335804	-0.324302	0.086470	-0.425842	-0.398444	0.047908	-0.377271	-0.221480	0.027774	-0.313501	-0.188133	0.046284	-0.396904	-0.155460	0.033735	-0.402983	-0.310059	0.767435	-0.745211	-0.308544	0.705867	-0.743417	-0.243701	0.701241	-0.743087	-0.237814	0.760928	-0.745309	-0.312844	0.483315	-0.722985	-0.298779	0.472268	-0.615055	-0.367846	0.294124	-0.748711	-0.371548	0.253923	-0.741712	-0.310766	0.254515	-0.733853	-0.314134	0.297715	-0.742098	-0.343717	0.073585	-0.739551	-0.325392	0.077484	-0.647489	-0.399367	0.038390	-0.699088	-0.223669	0.028135	-0.767064	-0.184735	0.041362	-0.684614	-0.154713	0.029585	-0.685672	
5	0.0250	-0.381280	1.522426	-0.548775	-0.326609	1.479103	-0.771450	-0.299718	1.490837	-0.348846	-0.238820	1.474541	-0.557500	-0.197625	1.017661	-0.429327	-0.204787	1.015245	-0.668738	-0.292274	1.071216	-0.378045	-0.306906	1.076255	-0.714105	-0.384449	1.037056	-0.497593	-0.383058	1.038455	-0.591034	-0.386630	1.038162	-0.544074	-0.291116	0.810341	-0.339748	-0.287432	0.750338	-0.333039	-0.222836	0.750393	-0.336560	-0.218026	0.811372	-0.344117	-0.292383	0.489391	-0.349258	-0.295657	0.470357	-0.463685	-0.345528	0.315566	-0.312902	-0.353660	0.274829	-0.320974	-0.296729	0.270939	-0.341709	-0.293394	0.310380	-0.335083	-0.352264	0.083882	-0.335745	-0.324293	0.086423	-0.425877	-0.398423	0.047925	-0.377288	-0.221476	0.027783	-0.313504	-0.188130	0.046282	-0.396904	-0.155455	0.033748	-0.403001	-0.310075	0.767425	-0.745227	-0.308590	0.705847	-0.743383	-0.243713	0.701244	-0.743080	-0.237824	0.760933	-0.745318	-0.312853	0.483320	-0.722986	-0.298801	0.472262	-0.615051	-0.367895	0.294091	-0.748701	-0.371556	0.253933	-0.741708	-0.310775	0.254521	-0.733849	-0.314119	0.297664	-0.742154	-0.343691	0.073546	-0.739603	-0.325410	0.077454	-0.647443	-0.399366	0.038404	-0.699096	-0.223659	0.028152	-0.767077	-0.184714	0.041332	-0.684638	-0.154705	0.029602	-0.685686	
6	0.0300	-0.381241	1.522394	-0.548781	-0.326610	1.479062	-0.771447	-0.299718	1.490839	-0.348869	-0.238824	1.474504	-0.557537	-0.197641	1.017665	-0.429327	-0.204802	1.015241	-0.668739	-0.292271	1.071252	-0.378059	-0.306916	1.076228	-0.714113	-0.384466	1.037055	-0.497577	-0.383056	1.038461	-0.591005	-0.386635	1.038159	-0.544081	-0.291139	0.810357	-0.339746	-0.287449	0.750354	-0.333006	-0.222846	0.750409	-0.336551	-0.218040	0.811379	-0.344120	-0.292407	0.489397	-0.349257	-0.295672	0.470357	-0.463685	-0.345550	0.315561	-0.312938	-0.353669	0.274829	-0.320976	-0.296740	0.270943	-0.341713	-0.293375	0.310364	-0.335064	-0.352267	0.083872	-0.335696	-0.324287	0.086387	-0.425903	-0.398402	0.047941	-0.377303	-0.221471	0.027791	-0.313506	-0.188127	0.046285	-0.396907	-0.155450	0.033761	-0.403017	-0.310090	0.767417	-0.745239	-0.308630	0.705831	-0.743356	-0.243725	0.701247	-0.743075	-0.237834	0.760936	-0.745323	-0.312864	0.483323	-0.722985	-0.298819	0.472258	-0.615048	-0.367936	0.294065	-0.748693	-0.371564	0.253941	-0.741703	-0.310784	0.254527	-0.733845	-0.314109	0.297626	-0.742197	-0.343670	0.073517	-0.739644	-0.325426	0.077432	-0.647408	-0.399366	0.038416	-0.699104	-0.223650	0.028169	-0.767089	-0.184698	0.041310	-0.684655	-0.154697	0.029617	-0.685699	
7	0.0350	-0.381217	1.522369	-0.548782	-0.326611	1.479022	-0.771441	-0.299714	1.490844	-0.348883	-0.238828	1.474470	-0.557570	-0.197656	1.017670	-0.429329	-0.204817	1.015237	-0.668741	-0.292273	1.071279	-0.378062	-0.306928	1.076207	-0.714119	-0.384485	1.037053	-0.497558	-0.383050	1.038468	-0.590961	-0.386640	1.038155	-0.544086	-0.291160	0.810369	-0.339744	-0.287464	0.750365	-0.332985	-0.222855	0.750422	-0.336544	-0.218054	0.811384	-0.344122	-0.292429	0.489401	-0.349255	-0.295687	0.470357	-0.463686	-0.345567	0.315559	-0.312960	-0.353679	0.274828	-0.320980	-0.296750	0.270947	-0.341715	-0.293363	0.310352	-0.335051	-0.352269	0.083856	-0.335659	-0.324284	0.086362	-0.425919	-0.398384	0.047957	-0.377314	-0.221466	0.027799	-0.313507	-0.188124	0.046292	-0.396912	-0.155447	0.033773	-0.403031	-0.310105	0.767410	-0.745246	-0.308664	0.705819	-0.743334	-0.243736	0.701250	-0.743071	-0.237846	0.760938	-0.745327	-0.312874	0.483326	-0.722984	-0.298840	0.472253	-0.615047	-0.367969	0.294046	-0.748686	-0.371573	0.253946	-0.741699	-0.310793	0.254532	-0.733841	-0.314107	0.297599	-0.742228	-0.343655	0.073498	-0.739670	-0.325437	0.077419	-0.647385	-0.399367	0.038425	-0.699111	-0.223641	0.028184	-0.767098	-0.184686	0.041296	-0.684667	-0.154690	0.029630	-0.685708	
8	0.0400	-0.381202	1.522354	-0.548787	-0.326614	1.478987	-0.771436	-0.299708	1.490851	-0.348893	-0.238832	1.474442	-0.557600	-0.197668	1.017673	-0.429332	-0.204833	1.015234	-0.668743	-0.292277	1.071295	-0.378057	-0.306941	1.076192	-0.714123	-0.384503	1.037050	-0.497540	-0.383048	1.038472	-0.590934	-0.386648	1.038150	-0.544087	-0.291179	0.810376	-0.339741	-0.287477	0.750372	-0.332976	-0.222865	0.750433	-0.336540	-0.218066	0.811389	-0.344124	-0.292447	0.489403	-0.349253	-0.295699	0.470357	-0.463687	-0.345579	0.315560	-0.312970	-0.353692	0.274824	-0.320988	-0.296759	0.270948	-0.341715	-0.293358	0.310346	-0.335042	-0.352272	0.083831	-0.335633	-0.324285	0.086349	-0.425925	-0.398371	0.047968	-0.377322	-0.221462	0.027803	-0.313506	-0.188122	0.046300	-0.396918	-0.155445	0.033783	-0.403043	-0.310120	0.767405	-0.745249	-0.308690	0.705813	-0.743320	-0.243748	0.701254	-0.743069	-0.237858	0.760939	-0.745328	-0.312885	0.483326	-0.722981	-0.298869	0.472246	-0.615049	-0.367993	0.294035	-0.748682	-0.371582	0.253948	-0.741694	-0.310802	0.254536	-0.733839	-0.314111	0.297585	-0.742246	-0.343649	0.073488	-0.739682	-0.325445	0.077414	-0.647373	-0.399368	0.038431	-0.699116	-0.223634	0.028197	-0.767106	-0.184680	0.041289	-0.684672	-0.154685	0.029638	-0.685712	
9	0.0450	-0.381197	1.522348	-0.548798	-0.326620	1.478954	-0.771433	-0.299700	1.490859	-0.348903	-0.238835	1.474418	-0.557627	-0.197678	1.017675	-0.429335	-0.204848	1.015232	-0.668744	-0.292282	1.071306	-0.378048	-0.306956	1.076180	-0.714125	-0.384520	1.037046	-0.497523	-0.383052	1.038474	-0.590922	-0.386657	1.038145	-0.544084	-0.291196	0.810378	-0.339738	-0.287487	0.750375	-0.332973	-0.222875	0.750440	-0.336537	-0.218078	0.811392	-0.344125	-0.292460	0.489404	-0.349251	-0.295711	0.470358	-0.463686	-0.345588	0.315561	-0.312972	-0.353705	0.274819	-0.320995	-0.296768	0.270947	-0.341713	-0.293358	0.310342	-0.335037	-0.352278	0.083800	-0.335617	-0.324286	0.086342	-0.425926	-0.398362	0.047977	-0.377325	-0.221459	0.027806	-0.313503	-0.188121	0.046307	-0.396923	-0.155444	0.033790	-0.403051	-0.310134	0.767401	-0.745249	-0.308711	0.705810	-0.743311	-0.243761	0.701258	-0.743068	-0.237870	0.760941	-0.745328	-0.312897	0.483325	-0.722978	-0.298907	0.472235	-0.615054	-0.368013	0.294029	-0.748680	-0.371592	0.253949	-0.741689	-0.310812	0.254539	-0.733837	-0.314119	0.297577	-0.742255	-0.343646	0.073483	-0.739688	-0.325450	0.077414	-0.647367	-0.399369	0.038434	-0.699120	-0.223629	0.028206	-0.767111	-0.184677	0.041285	-0.684674	-0.154681	0.029644	-0.685713	
